<svg width="48" height="48" viewBox="0 0 48 48" fill="none" xmlns="http://www.w3.org/2000/svg">
<path fill-rule="evenodd" clip-rule="evenodd" d="M19.0328 14.5234H26.0796C29.4006 14.5234 32.0735 17.1963 32.0735 20.4767C32.0735 23.7976 29.4006 26.4706 26.0796 26.4706H22.1917V28.374H27.9426V31.4924H22.1513V33.4769H19.0328V31.4924H16.7649V28.374H19.0328V26.4706H16.7649V23.3521H19.0328V14.5234ZM22.1917 23.3521H26.0796C27.6591 23.3521 28.9551 22.0967 28.9551 20.5172C28.9551 18.9378 27.6591 17.6418 26.0796 17.6418H22.1917V23.3521Z" fill="#031224"/>
<path fill-rule="evenodd" clip-rule="evenodd" d="M24 6.50012C14.335 6.50012 6.5 14.3351 6.5 24.0001C6.5 33.6651 14.335 41.5001 24 41.5001C33.665 41.5001 41.5 33.6651 41.5 24.0001C41.5 14.3351 33.665 6.50012 24 6.50012ZM9.42669 24.0001C9.42669 15.9515 15.9514 9.42681 24 9.42681C32.0486 9.42681 38.5733 15.9515 38.5733 24.0001C38.5733 32.0487 32.0486 38.5734 24 38.5734C15.9514 38.5734 9.42669 32.0487 9.42669 24.0001Z" fill="#031224"/>
</svg>
